<svg xmlns="http://www.w3.org/2000/svg" width="259" height="194" viewBox="0 0 259 194">
<g>
<path d="M 217.81 137.35 L 217.50 139.50 L 130.42 139.76 C82.53,139.90 43.04,139.71 42.67,139.34 C41.13,137.80 42.22,135.86 45.51,134.30 C47.84,133.18 48.86,132.10 48.55,131.06 C47.99,129.16 46.28,118.11 45.63,112.13 C45.28,108.90 45.45,108.05 46.28,108.88 C48.36,110.96 48.67,110.03 47.84,104.25 C46.48,94.70 46.73,78.58 48.31,74.80 C49.97,70.82 52.57,68.00 54.57,68.00 C55.77,68.00 56.00,72.00 56.00,93.00 L 56.00 118.00 L 53.50 118.00 C51.07,118.00 51.00,118.20 51.00,125.06 C51.00,129.51 51.37,131.89 52.00,131.50 C52.55,131.16 53.00,128.21 53.00,124.94 C53.00,120.33 53.33,119.00 54.50,119.00 C55.65,119.00 56.00,120.29 56.00,124.61 C56.00,129.31 56.26,130.12 57.58,129.61 C58.45,129.27 59.35,129.00 59.58,129.00 C59.81,129.00 60.00,116.18 60.00,100.50 C60.00,72.67 60.05,72.00 62.00,72.00 C63.86,72.00 64.00,72.67 64.00,81.31 C64.00,87.95 64.42,91.17 65.47,92.56 C66.60,94.05 66.94,97.85 66.97,109.08 C66.99,117.10 67.27,123.94 67.60,124.26 C67.93,124.59 68.83,124.62 69.60,124.32 C70.71,123.90 71.00,120.84 71.00,109.51 C71.00,95.82 71.09,95.18 73.25,93.75 C75.39,92.34 75.53,91.47 76.00,76.38 C76.42,63.15 76.75,60.50 78.00,60.50 C79.24,60.50 79.55,62.68 79.78,72.98 C79.94,79.85 80.50,85.90 81.03,86.43 C81.56,86.96 82.00,92.97 82.00,99.77 C82.00,111.02 82.16,112.12 83.75,111.81 C85.27,111.52 85.57,109.88 86.00,99.49 C86.28,92.66 87.04,86.56 87.75,85.32 C88.55,83.91 89.00,78.99 89.00,71.57 C89.00,62.06 89.26,60.00 90.47,60.00 C91.67,60.00 91.99,62.32 92.22,72.71 L 92.50 85.42 L 95.86 86.11 C97.71,86.48 99.96,87.54 100.86,88.46 C102.38,90.01 102.30,90.30 99.69,92.56 C98.15,93.90 95.90,95.01 94.69,95.03 C92.56,95.06 92.55,95.10 94.42,96.52 C95.48,97.32 97.84,98.26 99.67,98.60 C102.49,99.13 103.00,99.65 103.00,102.00 C103.00,103.53 103.93,105.84 105.07,107.14 L 107.14 109.50 L 106.41 106.50 C105.00,100.68 105.37,98.68 108.17,97.09 C110.59,95.72 111.52,95.75 117.84,97.39 C125.13,99.28 130.38,99.03 134.89,96.58 L 137.27 95.28 L 134.52 94.59 C133.00,94.21 131.52,94.15 131.22,94.45 C130.91,94.75 131.30,95.01 132.08,95.02 C133.25,95.03 133.24,95.20 132.00,96.00 C129.47,97.63 120.77,97.08 116.17,94.99 C112.38,93.27 111.51,93.20 109.17,94.38 C106.25,95.86 99.00,97.41 99.00,96.56 C99.00,96.27 100.68,94.49 102.72,92.61 C106.13,89.49 106.34,89.00 105.18,86.84 C104.14,84.89 104.20,83.70 105.51,79.99 C107.04,75.67 107.02,75.45 105.05,74.13 C103.21,72.89 103.00,71.73 103.00,62.51 L 103.00 52.26 L 98.93 51.72 C85.71,49.94 78.73,34.59 86.51,24.40 C89.56,20.40 93.78,18.27 100.45,17.35 C103.54,16.93 105.72,15.86 107.68,13.79 C111.48,9.81 116.16,8.00 122.67,8.00 C128.74,8.00 132.95,9.75 137.69,14.25 C140.75,17.16 141.04,17.23 145.38,16.13 C147.86,15.51 150.92,15.00 152.19,15.01 C159.85,15.02 168.89,21.10 171.06,27.68 C174.05,36.74 169.69,47.29 161.57,50.62 L 157.01 52.50 L 156.98 65.00 C156.96,75.05 156.59,78.31 155.08,81.63 C154.05,83.90 152.71,86.06 152.10,86.44 C150.37,87.50 150.80,89.94 153.23,92.87 L 155.46 95.57 L 161.13 89.54 C166.48,83.84 166.90,83.60 168.65,85.13 C171.27,87.44 174.23,88.17 180.91,88.13 C186.07,88.11 187.05,88.44 189.56,91.06 L 192.40 94.02 L 188.20 98.30 C185.89,100.65 184.00,103.22 184.00,104.00 C184.00,104.78 186.15,103.30 188.78,100.71 C191.42,98.12 194.02,96.00 194.57,96.00 C195.12,96.00 197.92,98.38 200.78,101.28 L 206.00 106.56 L 206.00 118.78 C206.00,128.98 206.25,131.00 207.50,131.00 C208.70,131.00 209.01,129.45 209.05,123.25 C209.08,117.03 209.57,114.61 211.50,111.00 C213.55,107.17 213.91,106.87 213.94,109.00 C213.95,110.38 213.31,115.78 212.50,121.00 C212.40,121.63 212.31,122.23 212.22,122.79 C211.17,129.58 210.83,131.75 211.76,132.78 C212.27,133.35 213.18,133.56 214.56,134.02 C217.35,134.94 218.05,135.65 217.81,137.35 ZM 150.80 65.47 C152.34,67.00 153.00,65.43 153.01,60.25 C153.01,52.26 154.54,47.57 158.11,44.56 C161.46,41.74 164.03,41.05 161.98,43.52 C161.28,44.36 160.95,45.29 161.24,45.58 C161.53,45.87 162.72,44.90 163.87,43.44 C169.52,36.26 168.07,26.68 160.64,22.09 C156.12,19.29 147.84,19.26 142.69,22.03 C138.84,24.09 137.00,23.94 137.00,21.56 C137.00,19.26 129.48,13.31 125.67,12.60 C121.31,11.78 115.20,13.26 111.76,15.98 C108.74,18.35 106.03,23.76 105.92,27.65 C105.84,30.35 105.73,30.27 103.88,26.25 C102.20,22.59 101.49,22.00 98.84,22.00 C94.19,22.00 88.00,28.53 88.00,33.43 C88.00,37.78 90.13,42.28 93.22,44.44 C96.22,46.55 97.29,46.40 96.04,44.07 C93.49,39.31 95.02,38.76 99.44,42.84 C101.88,45.09 104.96,47.20 106.27,47.53 C108.60,48.12 108.65,48.35 108.19,56.22 L 107.73 64.31 L 111.61 63.64 C120.27,62.15 130.91,61.84 138.00,62.87 C147.37,64.24 150.13,64.79 150.80,65.47 ZM 144.45 185.48 C139.66,186.32 132.53,186.97 128.62,186.93 C114.81,186.79 96.16,181.42 84.50,174.21 L 78.50 170.50 L 60.58 170.00 C47.50,169.64 42.55,169.16 42.25,168.25 C41.92,167.26 59.17,166.96 125.92,166.80 C172.16,166.69 211.69,166.58 213.75,166.55 C216.44,166.51 217.50,166.92 217.50,168.00 C217.50,169.26 214.61,169.58 199.50,170.00 L 181.50 170.50 L 175.46 174.10 C166.88,179.20 154.60,183.71 144.45,185.48 ZM 109.67 135.33 C110.03,135.70 124.17,136.00 141.07,136.00 L 171.81 136.00 L 174.91 130.50 C178.13,124.79 181.27,122.65 178.46,128.07 C177.59,129.75 177.02,132.12 177.19,133.32 C177.46,135.21 178.23,135.54 182.88,135.81 C191.25,136.28 191.39,136.09 188.48,128.36 C187.10,124.67 185.50,121.11 184.95,120.44 C184.39,119.77 178.16,116.65 171.11,113.51 L 158.29 107.81 L 153.27 112.83 C147.56,118.53 141.51,121.03 137.76,119.22 C135.66,118.21 135.64,118.13 137.50,118.06 C140.68,117.94 149.61,112.35 152.00,109.00 C153.81,106.46 154.03,105.31 153.32,102.29 C152.23,97.67 150.61,97.11 149.07,100.82 C146.95,105.95 139.14,112.33 131.75,114.97 C129.46,115.79 129.00,116.53 129.00,119.48 L 129.00 123.00 L 109.00 123.00 L 109.00 128.83 C109.00,132.04 109.30,134.97 109.67,135.33 ZM 71.74 135.41 C72.07,135.73 74.96,136.00 78.17,136.00 C83.95,136.00 84.00,135.98 84.00,133.07 C84.00,131.45 83.54,128.91 82.97,127.42 C82.03,124.95 82.09,124.83 83.60,126.09 C84.52,126.85 86.10,129.39 87.10,131.74 L 88.93 136.00 L 105.00 136.00 L 105.00 129.72 C105.00,120.09 106.17,119.00 116.56,119.00 C121.52,119.00 125.00,118.59 125.00,118.00 C125.00,117.44 122.32,117.00 118.96,117.00 C112.33,117.00 106.21,114.56 103.64,110.89 L 102.14 108.76 L 93.32 112.52 C80.57,117.96 77.36,120.02 75.46,123.98 C72.81,129.48 71.09,134.76 71.74,135.41 ZM 123.07 89.82 C127.84,93.33 129.23,93.77 128.36,91.50 C128.01,90.59 128.36,90.00 129.26,90.00 C132.66,90.00 135.86,86.00 137.05,80.26 C138.12,75.11 138.06,74.45 136.46,73.53 C135.49,72.96 133.24,71.26 131.46,69.75 C128.88,67.55 127.24,67.00 123.25,67.00 C118.25,67.00 108.08,68.59 107.16,69.51 C106.88,69.78 107.65,71.07 108.87,72.36 C111.00,74.63 111.03,74.89 109.56,79.11 C108.72,81.52 108.02,84.01 108.01,84.63 C108.01,85.27 110.31,85.94 113.38,86.20 C117.39,86.53 119.84,87.45 123.07,89.82 ZM 185.00 79.91 C180.22,81.02 180.05,81.03 178.50,80.50 C177.95,80.32 175.76,79.87 173.64,79.52 C169.22,78.77 165.00,75.09 165.00,71.97 C165.00,69.13 170.27,64.00 173.17,64.00 C175.44,64.01 175.42,64.08 172.50,66.59 C170.44,68.35 170.13,68.93 171.50,68.41 C174.84,67.17 185.31,67.01 186.72,68.19 C187.45,68.79 188.37,68.97 188.76,68.57 C189.15,68.18 188.35,67.00 186.99,65.95 C184.61,64.13 184.60,64.04 186.60,64.02 C189.79,63.99 194.00,68.41 194.00,71.78 C194.00,75.57 190.63,78.62 185.00,79.91 ZM 210.72 90.10 C206.65,96.16 199.39,94.74 196.97,87.42 C193.44,76.71 202.46,64.46 209.04,71.04 C213.63,75.63 214.42,84.59 210.72,90.10 ZM 151.27 56.62 C150.96,60.68 150.44,63.95 150.11,63.88 C149.77,63.82 146.57,63.05 143.00,62.17 L 136.50 60.58 L 141.25 59.62 C146.71,58.52 147.52,57.05 142.75,56.90 C140.96,56.85 138.38,56.48 137.00,56.08 C134.66,55.41 134.73,55.32 138.21,54.64 C142.62,53.79 144.21,52.00 140.56,52.00 C136.88,52.00 137.41,50.33 141.32,49.60 C143.15,49.26 146.77,47.63 149.36,45.99 C151.95,44.34 154.29,43.00 154.56,43.00 C154.83,43.00 154.33,44.40 153.44,46.12 C152.55,47.83 151.58,52.56 151.27,56.62 ZM 123.43 48.04 C118.81,50.39 115.53,50.51 111.50,48.46 C108.41,46.89 104.61,43.05 105.39,42.28 C105.63,42.04 106.88,42.51 108.16,43.32 C114.15,47.12 122.18,45.78 126.75,40.23 L 128.99 37.50 L 129.00 40.87 L 129.00 44.24 L 134.82 43.82 C138.74,43.54 141.66,42.66 143.82,41.13 C147.04,38.83 147.85,39.55 145.97,43.06 C143.75,47.21 133.78,49.56 129.07,47.04 C127.78,46.35 126.20,46.62 123.43,48.04 ZM 198.00 152.94 C198.00,156.76 197.53,160.17 196.96,160.52 C196.39,160.88 194.45,159.55 192.64,157.58 C190.83,155.61 189.05,154.00 188.68,154.00 C188.31,154.00 188.00,155.35 188.00,157.00 C188.00,159.19 187.53,160.00 186.25,159.99 C184.78,159.99 184.46,158.88 184.22,152.99 C183.95,146.15 184.00,146.00 186.42,146.00 C188.10,146.00 189.45,146.95 190.66,149.00 C191.63,150.65 192.78,152.00 193.22,152.00 C193.65,152.00 194.00,150.65 194.00,149.00 C194.00,146.67 194.44,146.00 196.00,146.00 C197.81,146.00 198.00,146.67 198.00,152.94 ZM 49.82 158.17 C49.49,160.43 47.88,161.55 46.69,160.35 C46.31,159.98 46.00,156.59 46.00,152.83 L 46.00 146.00 L 50.80 146.00 C57.55,146.00 59.85,149.07 56.78,153.99 C55.81,155.54 55.81,156.21 56.78,157.18 C58.55,158.95 58.28,160.00 56.04,160.00 C54.95,160.00 53.59,159.10 53.00,158.00 C51.60,155.38 50.22,155.46 49.82,158.17 ZM 153.71 158.00 C154.11,159.53 153.74,160.00 152.12,160.00 C150.16,160.00 150.00,159.46 150.00,153.00 L 150.00 146.00 L 154.80 146.00 C161.55,146.00 163.85,149.07 160.78,153.99 C159.81,155.54 159.81,156.21 160.78,157.18 C162.55,158.95 162.28,160.00 160.04,160.00 C158.95,160.00 157.59,159.10 157.00,158.00 C156.41,156.90 155.31,156.00 154.56,156.00 C153.68,156.00 153.38,156.72 153.71,158.00 ZM 179.93 154.81 C181.03,157.62 181.62,160.08 181.22,160.28 C179.76,161.02 177.00,159.81 177.00,158.43 C177.00,156.47 171.39,156.54 170.64,158.50 C170.32,159.32 169.10,160.00 167.92,160.00 C166.29,160.00 165.95,159.59 166.49,158.25 C166.88,157.29 168.11,154.14 169.24,151.25 C170.89,147.01 171.72,146.00 173.60,146.00 C176.12,146.00 176.86,147.03 179.93,154.81 ZM 116.64 158.50 C116.13,159.84 112.00,160.73 112.00,159.51 C112.00,159.24 113.18,156.07 114.63,152.46 C116.99,146.56 117.51,145.92 119.81,146.20 C121.92,146.45 122.83,147.65 125.12,153.25 L 127.88 160.00 L 125.44 160.00 C123.94,160.00 123.00,159.42 123.00,158.50 C123.00,157.51 122.01,157.00 120.11,157.00 C118.46,157.00 116.97,157.64 116.64,158.50 ZM 143.02 157.24 C137.75,163.95 129.00,159.66 129.00,150.37 C129.00,146.67 129.31,146.00 131.00,146.00 C132.66,146.00 133.00,146.67 133.00,149.93 C133.00,153.59 134.93,157.00 137.01,157.00 C138.69,157.00 141.00,152.53 141.00,149.28 C141.00,146.67 141.41,146.00 143.00,146.00 C144.69,146.00 145.00,146.67 145.00,150.37 C145.00,153.20 144.31,155.61 143.02,157.24 ZM 90.58 158.51 C87.88,161.21 86.94,161.37 82.70,159.82 C78.81,158.40 79.89,156.43 84.36,156.79 C88.94,157.16 89.07,155.79 84.60,154.17 C80.74,152.78 79.54,150.72 81.00,148.00 C82.28,145.60 85.26,144.68 89.02,145.50 C93.30,146.44 92.81,148.80 88.25,149.25 L 84.50 149.61 L 87.77 150.91 C92.69,152.86 93.65,155.45 90.58,158.51 ZM 75.00 158.39 C75.00,159.22 73.68,159.93 71.75,160.16 C65.33,160.90 65.00,160.54 65.00,152.93 L 65.00 146.00 L 70.00 146.00 C73.67,146.00 75.00,146.38 75.00,147.43 C75.00,148.22 73.86,149.01 72.47,149.18 C69.16,149.60 69.20,151.41 72.53,151.82 C75.83,152.23 75.21,154.40 71.67,154.82 C68.02,155.25 68.28,157.00 72.00,157.00 C73.90,157.00 75.00,157.51 75.00,158.39 ZM 72.80 82.50 C72.52,89.89 72.33,90.52 70.29,90.81 C67.41,91.22 66.82,88.87 67.20,78.50 C67.48,71.11 67.67,70.48 69.71,70.19 C72.59,69.78 73.18,72.13 72.80,82.50 ZM 212.00 154.50 C212.00,159.70 211.86,160.00 209.50,160.00 C207.14,160.00 207.00,159.70 207.00,154.50 C207.00,149.67 206.76,149.00 205.00,149.00 C203.89,149.00 203.00,148.33 203.00,147.50 C203.00,146.32 204.39,146.00 209.50,146.00 C214.61,146.00 216.00,146.32 216.00,147.50 C216.00,148.33 215.11,149.00 214.00,149.00 C212.24,149.00 212.00,149.67 212.00,154.50 ZM 188.78 84.44 C184.57,87.39 169.00,85.90 169.00,82.56 C169.00,81.79 171.99,81.44 178.25,81.46 C183.34,81.48 188.29,81.11 189.25,80.64 C191.90,79.35 191.50,82.53 188.78,84.44 ZM 105.20 154.75 C104.94,159.18 104.59,160.00 102.95,160.00 C101.27,160.00 101.00,159.29 101.00,154.91 C101.00,150.65 100.67,149.73 99.00,149.29 C97.90,149.00 97.00,148.14 97.00,147.38 C97.00,146.36 98.56,146.00 103.00,146.00 C108.22,146.00 109.00,146.25 109.00,147.89 C109.00,149.07 108.35,149.73 107.25,149.64 C105.82,149.53 105.44,150.47 105.20,154.75 ZM 144.20 83.80 C146.06,85.66 147.67,85.24 149.98,82.30 C153.02,78.43 152.42,73.61 148.85,73.19 C144.33,72.67 140.90,80.50 144.20,83.80 ZM 85.78 71.67 C85.58,79.91 85.13,83.46 84.25,83.75 C83.30,84.07 83.00,81.30 83.00,72.08 C83.00,61.90 83.24,60.00 84.53,60.00 C85.84,60.00 86.02,61.73 85.78,71.67 ZM 127.50 73.00 C129.29,74.98 129.25,75.00 122.71,75.00 C119.09,75.00 115.84,74.55 115.50,74.00 C113.35,70.52 124.42,69.59 127.50,73.00 ZM 72.00 58.02 C72.00,59.58 69.92,59.15 63.75,56.34 C57.85,53.64 56.44,52.00 60.03,52.00 C62.62,52.00 72.00,56.71 72.00,58.02 ZM 117.42 132.39 C117.29,132.44 117.17,132.49 117.06,132.53 C116.36,132.80 115.98,132.95 115.62,132.92 C115.14,132.87 114.70,132.50 113.58,131.68 C110.74,129.61 111.95,126.55 115.76,126.19 C118.75,125.90 119.00,126.10 119.00,128.83 C119.00,130.60 118.37,132.03 117.42,132.39 ZM 76.45 53.08 C75.62,54.42 75.08,54.26 68.75,50.83 C63.01,47.71 61.55,46.00 64.63,46.00 C67.06,46.00 77.11,52.02 76.45,53.08 ZM 148.80 131.80 C147.28,133.32 146.80,133.30 144.58,131.68 C141.74,129.61 142.95,126.55 146.76,126.19 C149.59,125.91 150.00,126.17 150.00,128.24 C150.00,129.54 149.46,131.14 148.80,131.80 ZM 195.48 56.29 C189.93,59.01 187.00,59.68 187.00,58.21 C187.00,57.53 199.24,51.00 200.52,51.00 C200.78,51.00 201.00,51.58 201.00,52.29 C201.00,53.00 198.52,54.80 195.48,56.29 ZM 189.99 51.25 C184.74,54.14 183.00,54.60 183.00,53.09 C183.00,52.08 192.45,46.00 194.02,46.00 C196.60,46.00 194.46,48.78 189.99,51.25 ZM 185.75 45.20 C181.01,48.76 180.20,49.14 179.56,48.09 C179.02,47.23 186.88,40.00 188.35,40.00 C190.14,40.00 188.62,43.05 185.75,45.20 ZM 181.99 64.51 C181.31,65.33 180.47,65.96 180.13,65.92 C176.09,65.41 175.55,60.00 179.53,60.00 C182.48,60.00 183.77,62.37 181.99,64.51 ZM 142.46 103.41 C141.89,104.78 142.00,105.12 142.84,104.60 C145.05,103.24 148.00,96.10 147.94,92.29 C147.88,88.64 147.80,88.74 145.57,95.00 C144.29,98.57 142.89,102.36 142.46,103.41 ZM 78.98 47.75 C79.01,49.50 78.85,49.43 73.56,45.39 C70.37,42.96 69.16,41.44 69.83,40.77 C70.99,39.61 78.95,45.69 78.98,47.75 ZM 191.38 117.55 C191.69,118.35 193.08,119.00 194.47,119.00 C196.50,119.00 197.00,118.51 197.00,116.50 C197.00,114.52 196.50,114.00 194.56,114.00 C191.80,114.00 190.55,115.40 191.38,117.55 ZM 191.38 110.55 C191.69,111.35 193.08,112.00 194.47,112.00 C196.50,112.00 197.00,111.51 197.00,109.50 C197.00,107.52 196.50,107.00 194.56,107.00 C191.80,107.00 190.55,108.40 191.38,110.55 ZM 176.71 107.38 C178.19,108.85 181.50,107.47 181.82,105.25 C182.09,103.34 181.68,103.00 179.07,103.00 C176.76,103.00 176.00,103.45 176.00,104.83 C176.00,105.84 176.32,106.99 176.71,107.38 ZM 200.13 61.84 C195.26,63.30 195.00,63.29 195.00,61.66 C195.00,60.92 196.74,59.80 198.87,59.16 C203.74,57.70 204.00,57.71 204.00,59.34 C204.00,60.08 202.26,61.20 200.13,61.84 ZM 176.00 99.00 C176.00,100.56 176.67,101.00 179.00,101.00 C181.57,101.00 182.00,100.62 182.00,98.39 C182.00,96.43 181.61,95.94 180.42,96.39 C179.55,96.73 178.20,97.00 177.42,97.00 C176.64,97.00 176.00,97.90 176.00,99.00 ZM 64.00 61.58 C64.00,63.07 63.46,63.20 61.00,62.28 C60.17,61.97 58.41,61.31 57.09,60.82 C55.37,60.18 54.98,59.62 55.75,58.85 C57.19,57.41 64.00,59.65 64.00,61.58 ZM 168.25 107.34 C170.93,108.42 172.00,107.90 172.00,105.50 C172.00,103.50 171.50,103.00 169.50,103.00 C167.70,103.00 167.00,103.54 167.00,104.92 C167.00,105.97 167.56,107.06 168.25,107.34 ZM 182.96 36.75 C182.94,37.16 181.88,38.79 180.59,40.36 C177.78,43.79 175.98,42.21 178.44,38.46 C179.92,36.19 183.05,35.01 182.96,36.75 ZM 167.00 99.00 C167.00,100.47 167.67,101.00 169.50,101.00 C171.33,101.00 172.00,100.47 172.00,99.00 C172.00,97.53 171.33,97.00 169.50,97.00 C167.67,97.00 167.00,97.53 167.00,99.00 ZM 81.00 40.83 C81.00,42.55 79.54,42.26 77.65,40.17 C75.89,38.22 75.46,36.00 76.85,36.00 C78.05,36.00 81.00,39.43 81.00,40.83 ZM 206.00 100.00 C206.00,103.37 205.89,103.49 204.20,101.80 C202.51,100.11 202.71,97.00 204.50,97.00 ZM 153.47 151.94 C154.43,153.50 157.50,152.84 157.50,151.07 C157.50,150.30 157.05,149.52 156.50,149.35 C154.86,148.83 152.69,150.69 153.47,151.94 ZM 50.00 151.00 C50.00,152.51 50.52,153.05 51.75,152.81 C52.71,152.62 53.50,151.81 53.50,151.00 C53.50,150.19 52.71,149.38 51.75,149.19 C50.52,148.95 50.00,149.49 50.00,151.00 Z" fill="rgb(23,27,37)"/>
<path d="M 139.74 56.62 C140.78,56.77 141.86,56.87 142.75,56.90 C147.52,57.05 146.71,58.52 141.25,59.62 L 138.36 60.20 C138.70,60.09 139.17,59.96 139.75,59.81 C143.90,58.70 143.85,57.50 139.74,56.62 ZM 135.40 55.45 C135.44,55.61 136.00,55.79 137.00,56.08 C137.15,56.12 137.31,56.17 137.48,56.21 L 134.50 55.68 ZM 138.48 61.06 L 143.00 62.17 C146.57,63.05 149.77,63.82 150.11,63.88 C149.77,63.82 146.57,63.07 143.00,62.22 C140.75,61.69 139.29,61.33 138.48,61.06 ZM 142.58 52.65 C142.55,53.18 141.27,53.92 139.13,54.44 C141.20,53.81 142.43,53.13 142.58,52.65 ZM 138.11 51.03 C138.30,50.53 139.40,49.96 141.32,49.60 C139.43,49.96 138.32,50.53 138.11,51.03 Z" fill="rgb(167,170,176)"/>
<path d="M 0.00 97.00 L 0.00 0.00 L 129.50 0.00 L 259.00 0.00 L 259.00 97.00 L 259.00 194.00 L 129.50 194.00 L 0.00 194.00 L 0.00 97.00 ZM 144.45 185.48 C154.60,183.71 166.88,179.20 175.46,174.10 L 181.50 170.50 L 199.50 170.00 C214.61,169.58 217.50,169.26 217.50,168.00 C217.50,166.92 216.44,166.51 213.75,166.55 C211.69,166.58 172.16,166.69 125.92,166.80 C59.17,166.96 41.92,167.26 42.25,168.25 C42.55,169.16 47.50,169.64 60.58,170.00 L 78.50 170.50 L 84.50 174.21 C96.16,181.42 114.81,186.79 128.62,186.93 C132.53,186.97 139.66,186.32 144.45,185.48 ZM 49.82 158.17 C50.22,155.46 51.60,155.38 53.00,158.00 C53.59,159.10 54.95,160.00 56.04,160.00 C58.28,160.00 58.55,158.95 56.78,157.18 C55.81,156.21 55.81,155.54 56.78,153.99 C59.85,149.07 57.55,146.00 50.80,146.00 L 46.00 146.00 L 46.00 152.83 C46.00,156.59 46.31,159.98 46.69,160.35 C47.88,161.55 49.49,160.43 49.82,158.17 ZM 75.00 158.39 C75.00,157.51 73.90,157.00 72.00,157.00 C68.28,157.00 68.02,155.25 71.67,154.82 C75.21,154.40 75.83,152.23 72.53,151.82 C69.20,151.41 69.16,149.60 72.47,149.18 C73.86,149.01 75.00,148.22 75.00,147.43 C75.00,146.38 73.67,146.00 70.00,146.00 L 65.00 146.00 L 65.00 152.93 C65.00,160.54 65.33,160.90 71.75,160.16 C73.68,159.93 75.00,159.22 75.00,158.39 ZM 90.58 158.51 C93.65,155.45 92.69,152.86 87.77,150.91 L 84.50 149.61 L 88.25 149.25 C92.81,148.80 93.30,146.44 89.02,145.50 C85.26,144.68 82.28,145.60 81.00,148.00 C79.54,150.72 80.74,152.78 84.60,154.17 C89.07,155.79 88.94,157.16 84.36,156.79 C79.89,156.43 78.81,158.40 82.70,159.82 C86.94,161.37 87.88,161.21 90.58,158.51 ZM 143.02 157.24 C144.31,155.61 145.00,153.20 145.00,150.37 C145.00,146.67 144.69,146.00 143.00,146.00 C141.41,146.00 141.00,146.67 141.00,149.28 C141.00,152.53 138.69,157.00 137.01,157.00 C134.93,157.00 133.00,153.59 133.00,149.93 C133.00,146.67 132.66,146.00 131.00,146.00 C129.31,146.00 129.00,146.67 129.00,150.37 C129.00,159.66 137.75,163.95 143.02,157.24 ZM 179.93 154.81 C176.86,147.03 176.12,146.00 173.60,146.00 C171.72,146.00 170.89,147.01 169.24,151.25 C168.11,154.14 166.88,157.29 166.49,158.25 C165.95,159.59 166.29,160.00 167.92,160.00 C169.10,160.00 170.32,159.32 170.64,158.50 C171.39,156.54 177.00,156.47 177.00,158.43 C177.00,159.81 179.76,161.02 181.22,160.28 C181.62,160.08 181.03,157.62 179.93,154.81 ZM 198.00 152.94 C198.00,146.67 197.81,146.00 196.00,146.00 C194.44,146.00 194.00,146.67 194.00,149.00 C194.00,150.65 193.65,152.00 193.22,152.00 C192.78,152.00 191.63,150.65 190.66,149.00 C189.45,146.95 188.10,146.00 186.42,146.00 C184.00,146.00 183.95,146.15 184.22,152.99 C184.46,158.88 184.78,159.99 186.25,159.99 C187.53,160.00 188.00,159.19 188.00,157.00 C188.00,155.35 188.31,154.00 188.68,154.00 C189.05,154.00 190.83,155.61 192.64,157.58 C194.45,159.55 196.39,160.88 196.96,160.52 C197.53,160.17 198.00,156.76 198.00,152.94 ZM 105.20 154.75 C105.44,150.47 105.82,149.53 107.25,149.64 C108.35,149.73 109.00,149.07 109.00,147.89 C109.00,146.25 108.22,146.00 103.00,146.00 C98.56,146.00 97.00,146.36 97.00,147.38 C97.00,148.14 97.90,149.00 99.00,149.29 C100.67,149.73 101.00,150.65 101.00,154.91 C101.00,159.29 101.27,160.00 102.95,160.00 C104.59,160.00 104.94,159.18 105.20,154.75 ZM 116.64 158.50 C116.97,157.64 118.46,157.00 120.11,157.00 C122.01,157.00 123.00,157.51 123.00,158.50 C123.00,159.42 123.94,160.00 125.44,160.00 L 127.88 160.00 L 125.12 153.25 C122.83,147.65 121.92,146.45 119.81,146.20 C117.51,145.92 116.99,146.56 114.63,152.46 C113.18,156.07 112.00,159.24 112.00,159.51 C112.00,160.73 116.13,159.84 116.64,158.50 ZM 153.71 158.00 C153.38,156.72 153.68,156.00 154.56,156.00 C155.31,156.00 156.41,156.90 157.00,158.00 C157.59,159.10 158.95,160.00 160.04,160.00 C162.28,160.00 162.55,158.95 160.78,157.18 C159.81,156.21 159.81,155.54 160.78,153.99 C163.85,149.07 161.55,146.00 154.80,146.00 L 150.00 146.00 L 150.00 153.00 C150.00,159.46 150.16,160.00 152.12,160.00 C153.74,160.00 154.11,159.53 153.71,158.00 ZM 212.00 154.50 C212.00,149.67 212.24,149.00 214.00,149.00 C215.11,149.00 216.00,148.33 216.00,147.50 C216.00,146.32 214.61,146.00 209.50,146.00 C204.39,146.00 203.00,146.32 203.00,147.50 C203.00,148.33 203.89,149.00 205.00,149.00 C206.76,149.00 207.00,149.67 207.00,154.50 C207.00,159.70 207.14,160.00 209.50,160.00 C211.86,160.00 212.00,159.70 212.00,154.50 ZM 217.81 137.35 C218.05,135.65 217.35,134.94 214.56,134.02 C210.47,132.67 210.59,133.41 212.50,121.00 C213.31,115.78 213.95,110.38 213.94,109.00 C213.91,106.87 213.55,107.17 211.50,111.00 C209.57,114.61 209.08,117.03 209.05,123.25 C209.01,129.45 208.70,131.00 207.50,131.00 C206.25,131.00 206.00,128.98 206.00,118.78 L 206.00 106.56 L 200.78 101.28 C197.92,98.38 195.12,96.00 194.57,96.00 C194.02,96.00 191.42,98.12 188.78,100.71 C186.15,103.30 184.00,104.78 184.00,104.00 C184.00,103.22 185.89,100.65 188.20,98.30 L 192.40 94.02 L 189.56 91.06 C187.05,88.44 186.07,88.11 180.91,88.13 C174.23,88.17 171.27,87.44 168.65,85.13 C166.90,83.60 166.48,83.84 161.13,89.54 L 155.46 95.57 L 153.23 92.87 C150.80,89.94 150.37,87.50 152.10,86.44 C152.71,86.06 154.05,83.90 155.08,81.63 C156.59,78.31 156.96,75.05 156.98,65.00 L 157.01 52.50 L 161.57 50.62 C169.69,47.29 174.05,36.74 171.06,27.68 C168.89,21.10 159.85,15.02 152.19,15.01 C150.92,15.00 147.86,15.51 145.38,16.13 C141.04,17.23 140.75,17.16 137.69,14.25 C132.95,9.75 128.74,8.00 122.67,8.00 C116.16,8.00 111.48,9.81 107.68,13.79 C105.72,15.86 103.54,16.93 100.45,17.35 C93.78,18.27 89.56,20.40 86.51,24.40 C78.73,34.59 85.71,49.94 98.93,51.72 L 103.00 52.26 L 103.00 62.51 C103.00,71.73 103.21,72.89 105.05,74.13 C107.02,75.45 107.04,75.67 105.51,79.99 C104.20,83.70 104.14,84.89 105.18,86.84 C106.34,89.00 106.13,89.49 102.72,92.61 C100.68,94.49 99.00,96.27 99.00,96.56 C99.00,97.41 106.25,95.86 109.17,94.38 C111.51,93.20 112.38,93.27 116.17,94.99 C120.77,97.08 129.47,97.63 132.00,96.00 C133.24,95.20 133.25,95.03 132.08,95.02 C131.30,95.01 130.91,94.75 131.22,94.45 C131.52,94.15 133.00,94.21 134.52,94.59 L 137.27 95.28 L 134.89 96.58 C130.38,99.03 125.13,99.28 117.84,97.39 C111.52,95.75 110.59,95.72 108.17,97.09 C105.37,98.68 105.00,100.68 106.41,106.50 L 107.14 109.50 L 105.07 107.14 C103.93,105.84 103.00,103.53 103.00,102.00 C103.00,99.65 102.49,99.13 99.67,98.60 C97.84,98.26 95.48,97.32 94.42,96.52 C92.55,95.10 92.56,95.06 94.69,95.03 C95.90,95.01 98.15,93.90 99.69,92.56 C102.30,90.30 102.38,90.01 100.86,88.46 C99.96,87.54 97.71,86.48 95.86,86.11 L 92.50 85.42 L 92.22 72.71 C91.99,62.32 91.67,60.00 90.47,60.00 C89.26,60.00 89.00,62.06 89.00,71.57 C89.00,78.99 88.55,83.91 87.75,85.32 C87.04,86.56 86.28,92.66 86.00,99.49 C85.57,109.88 85.27,111.52 83.75,111.81 C82.16,112.12 82.00,111.02 82.00,99.77 C82.00,92.97 81.56,86.96 81.03,86.43 C80.50,85.90 79.94,79.85 79.78,72.98 C79.55,62.68 79.24,60.50 78.00,60.50 C76.75,60.50 76.42,63.15 76.00,76.38 C75.53,91.47 75.39,92.34 73.25,93.75 C71.09,95.18 71.00,95.82 71.00,109.51 C71.00,120.84 70.71,123.90 69.60,124.32 C68.83,124.62 67.93,124.59 67.60,124.26 C67.27,123.94 66.99,117.10 66.97,109.08 C66.94,97.85 66.60,94.05 65.47,92.56 C64.42,91.17 64.00,87.95 64.00,81.31 C64.00,72.67 63.86,72.00 62.00,72.00 C60.05,72.00 60.00,72.67 60.00,100.50 C60.00,116.18 59.81,129.00 59.58,129.00 C59.35,129.00 58.45,129.27 57.58,129.61 C56.26,130.12 56.00,129.31 56.00,124.61 C56.00,120.29 55.65,119.00 54.50,119.00 C53.33,119.00 53.00,120.33 53.00,124.94 C53.00,128.21 52.55,131.16 52.00,131.50 C51.37,131.89 51.00,129.51 51.00,125.06 C51.00,118.20 51.07,118.00 53.50,118.00 L 56.00 118.00 L 56.00 93.00 C56.00,72.00 55.77,68.00 54.57,68.00 C52.57,68.00 49.97,70.82 48.31,74.80 C46.73,78.58 46.48,94.70 47.84,104.25 C48.67,110.03 48.36,110.96 46.28,108.88 C45.45,108.05 45.28,108.90 45.63,112.13 C46.28,118.11 47.99,129.16 48.55,131.06 C48.86,132.10 47.84,133.18 45.51,134.30 C42.22,135.86 41.13,137.80 42.67,139.34 C43.04,139.71 82.53,139.90 130.42,139.76 L 217.50 139.50 L 217.81 137.35 ZM 206.00 100.00 C206.00,98.00 205.50,97.00 204.50,97.00 C202.71,97.00 202.51,100.11 204.20,101.80 C205.89,103.49 206.00,103.37 206.00,100.00 ZM 210.72 90.10 C214.42,84.59 213.63,75.63 209.04,71.04 C202.46,64.46 193.44,76.71 196.97,87.42 C199.39,94.74 206.65,96.16 210.72,90.10 ZM 72.80 82.50 C73.18,72.13 72.59,69.78 69.71,70.19 C67.67,70.48 67.48,71.11 67.20,78.50 C66.82,88.87 67.41,91.22 70.29,90.81 C72.33,90.52 72.52,89.89 72.80,82.50 ZM 188.78 84.44 C191.50,82.53 191.90,79.35 189.25,80.64 C188.29,81.11 183.34,81.48 178.25,81.46 C171.99,81.44 169.00,81.79 169.00,82.56 C169.00,85.90 184.57,87.39 188.78,84.44 ZM 85.78 71.67 C86.02,61.73 85.84,60.00 84.53,60.00 C83.24,60.00 83.00,61.90 83.00,72.08 C83.00,81.30 83.30,84.07 84.25,83.75 C85.13,83.46 85.58,79.91 85.78,71.67 ZM 185.00 79.91 C190.63,78.62 194.00,75.57 194.00,71.78 C194.00,68.41 189.79,63.99 186.60,64.02 C184.60,64.04 184.61,64.13 186.99,65.95 C188.35,67.00 189.15,68.18 188.76,68.57 C188.37,68.97 187.45,68.79 186.72,68.19 C185.31,67.01 174.84,67.17 171.50,68.41 C170.13,68.93 170.44,68.35 172.50,66.59 C175.42,64.08 175.44,64.01 173.17,64.00 C170.27,64.00 165.00,69.13 165.00,71.97 C165.00,75.09 169.22,78.77 173.64,79.52 C175.76,79.87 177.95,80.32 178.50,80.50 C180.05,81.03 180.22,81.02 185.00,79.91 ZM 181.99 64.51 C183.77,62.37 182.48,60.00 179.53,60.00 C175.55,60.00 176.09,65.41 180.13,65.92 C180.47,65.96 181.31,65.33 181.99,64.51 ZM 64.00 61.58 C64.00,59.65 57.19,57.41 55.75,58.85 C54.98,59.62 55.37,60.18 57.09,60.82 C58.41,61.31 60.17,61.97 61.00,62.28 C63.46,63.20 64.00,63.07 64.00,61.58 ZM 200.13 61.84 C202.26,61.20 204.00,60.08 204.00,59.34 C204.00,57.71 203.74,57.70 198.87,59.16 C196.74,59.80 195.00,60.92 195.00,61.66 C195.00,63.29 195.26,63.30 200.13,61.84 ZM 72.00 58.02 C72.00,56.71 62.62,52.00 60.03,52.00 C56.44,52.00 57.85,53.64 63.75,56.34 C69.92,59.15 72.00,59.58 72.00,58.02 ZM 195.48 56.29 C198.52,54.80 201.00,53.00 201.00,52.29 C201.00,51.58 200.78,51.00 200.52,51.00 C199.24,51.00 187.00,57.53 187.00,58.21 C187.00,59.68 189.93,59.01 195.48,56.29 ZM 76.45 53.08 C77.11,52.02 67.06,46.00 64.63,46.00 C61.55,46.00 63.01,47.71 68.75,50.83 C75.08,54.26 75.62,54.42 76.45,53.08 ZM 189.99 51.25 C194.46,48.78 196.60,46.00 194.02,46.00 C192.45,46.00 183.00,52.08 183.00,53.09 C183.00,54.60 184.74,54.14 189.99,51.25 ZM 78.98 47.75 C78.95,45.69 70.99,39.61 69.83,40.77 C69.16,41.44 70.37,42.96 73.56,45.39 C78.85,49.43 79.01,49.50 78.98,47.75 ZM 185.75 45.20 C188.62,43.05 190.14,40.00 188.35,40.00 C186.88,40.00 179.02,47.23 179.56,48.09 C180.20,49.14 181.01,48.76 185.75,45.20 ZM 182.96 36.75 C183.05,35.01 179.92,36.19 178.44,38.46 C175.98,42.21 177.78,43.79 180.59,40.36 C181.88,38.79 182.94,37.16 182.96,36.75 ZM 81.00 40.83 C81.00,39.43 78.05,36.00 76.85,36.00 C75.46,36.00 75.89,38.22 77.65,40.17 C79.54,42.26 81.00,42.55 81.00,40.83 ZM 50.00 151.00 C50.00,149.49 50.52,148.95 51.75,149.19 C52.71,149.38 53.50,150.19 53.50,151.00 C53.50,151.81 52.71,152.62 51.75,152.81 C50.52,153.05 50.00,152.51 50.00,151.00 ZM 153.47 151.94 C152.69,150.69 154.86,148.83 156.50,149.35 C157.05,149.52 157.50,150.30 157.50,151.07 C157.50,152.84 154.43,153.50 153.47,151.94 ZM 71.74 135.41 C71.09,134.76 72.81,129.48 75.46,123.98 C77.36,120.02 80.57,117.96 93.32,112.52 L 102.14 108.76 L 103.64 110.89 C106.21,114.56 112.33,117.00 118.96,117.00 C122.32,117.00 125.00,117.44 125.00,118.00 C125.00,118.59 121.52,119.00 116.56,119.00 C106.17,119.00 105.00,120.09 105.00,129.72 L 105.00 136.00 L 96.96 136.00 L 88.93 136.00 L 87.10 131.74 C86.10,129.39 84.52,126.85 83.60,126.09 C82.09,124.83 82.03,124.95 82.97,127.42 C83.54,128.91 84.00,131.45 84.00,133.07 C84.00,135.98 83.95,136.00 78.17,136.00 C74.96,136.00 72.07,135.73 71.74,135.41 ZM 109.67 135.33 C109.30,134.97 109.00,132.04 109.00,128.83 L 109.00 123.00 L 119.00 123.00 L 129.00 123.00 L 129.00 119.48 C129.00,116.53 129.46,115.79 131.75,114.97 C139.14,112.33 146.95,105.95 149.07,100.82 C150.61,97.11 152.23,97.67 153.32,102.29 C154.03,105.31 153.81,106.46 152.00,109.00 C149.61,112.35 140.68,117.94 137.50,118.06 C135.64,118.13 135.66,118.21 137.76,119.22 C141.51,121.03 147.56,118.53 153.27,112.83 L 158.29 107.81 L 171.11 113.51 C178.16,116.65 184.39,119.77 184.95,120.44 C185.50,121.11 187.10,124.67 188.48,128.36 C191.39,136.09 191.25,136.28 182.88,135.81 C178.23,135.54 177.46,135.21 177.19,133.32 C177.02,132.12 177.59,129.75 178.46,128.07 C181.27,122.65 178.13,124.79 174.91,130.50 L 171.81 136.00 L 141.07 136.00 C124.17,136.00 110.03,135.70 109.67,135.33 ZM 117.42 132.39 C118.37,132.03 119.00,130.60 119.00,128.83 C119.00,126.10 118.75,125.90 115.76,126.19 C111.95,126.55 110.74,129.61 113.58,131.68 C115.68,133.22 115.40,133.17 117.42,132.39 ZM 148.80 131.80 C149.46,131.14 150.00,129.54 150.00,128.24 C150.00,126.17 149.59,125.91 146.76,126.19 C142.95,126.55 141.74,129.61 144.58,131.68 C146.80,133.30 147.28,133.32 148.80,131.80 ZM 191.38 117.55 C190.55,115.40 191.80,114.00 194.56,114.00 C196.50,114.00 197.00,114.52 197.00,116.50 C197.00,118.51 196.50,119.00 194.47,119.00 C193.08,119.00 191.69,118.35 191.38,117.55 ZM 191.38 110.55 C190.55,108.40 191.80,107.00 194.56,107.00 C196.50,107.00 197.00,107.52 197.00,109.50 C197.00,111.51 196.50,112.00 194.47,112.00 C193.08,112.00 191.69,111.35 191.38,110.55 ZM 168.25 107.34 C167.56,107.06 167.00,105.97 167.00,104.92 C167.00,103.54 167.70,103.00 169.50,103.00 C171.50,103.00 172.00,103.50 172.00,105.50 C172.00,107.90 170.93,108.42 168.25,107.34 ZM 176.71 107.38 C176.32,106.99 176.00,105.84 176.00,104.83 C176.00,103.45 176.76,103.00 179.07,103.00 C181.68,103.00 182.09,103.34 181.82,105.25 C181.50,107.47 178.19,108.85 176.71,107.38 ZM 142.46 103.41 C142.89,102.36 144.29,98.57 145.57,95.00 C147.80,88.74 147.88,88.64 147.94,92.29 C148.00,96.10 145.05,103.24 142.84,104.60 C142.00,105.12 141.89,104.78 142.46,103.41 ZM 167.00 99.00 C167.00,97.53 167.67,97.00 169.50,97.00 C171.33,97.00 172.00,97.53 172.00,99.00 C172.00,100.47 171.33,101.00 169.50,101.00 C167.67,101.00 167.00,100.47 167.00,99.00 ZM 176.00 99.00 C176.00,97.90 176.64,97.00 177.42,97.00 C178.20,97.00 179.55,96.73 180.42,96.39 C181.61,95.94 182.00,96.43 182.00,98.39 C182.00,100.62 181.57,101.00 179.00,101.00 C176.67,101.00 176.00,100.56 176.00,99.00 ZM 123.07 89.82 C119.84,87.45 117.39,86.53 113.38,86.20 C110.31,85.94 108.01,85.27 108.01,84.63 C108.02,84.01 108.72,81.52 109.56,79.11 C111.03,74.89 111.00,74.63 108.87,72.36 C107.65,71.07 106.88,69.78 107.16,69.51 C108.08,68.59 118.25,67.00 123.25,67.00 C127.24,67.00 128.88,67.55 131.46,69.75 C133.24,71.26 135.49,72.96 136.46,73.53 C138.06,74.45 138.12,75.11 137.05,80.26 C135.86,86.00 132.66,90.00 129.26,90.00 C128.36,90.00 128.01,90.59 128.36,91.50 C129.23,93.77 127.84,93.33 123.07,89.82 ZM 127.50 73.00 C124.42,69.59 113.35,70.52 115.50,74.00 C115.84,74.55 119.09,75.00 122.71,75.00 C129.25,75.00 129.29,74.98 127.50,73.00 ZM 144.20 83.80 C140.90,80.50 144.33,72.67 148.85,73.19 C152.42,73.61 153.02,78.43 149.98,82.30 C147.67,85.24 146.06,85.66 144.20,83.80 ZM 150.80 65.47 C150.13,64.79 147.37,64.24 138.00,62.87 C130.91,61.84 120.27,62.15 111.61,63.64 L 107.73 64.31 L 108.19 56.22 C108.65,48.35 108.60,48.12 106.27,47.53 C104.96,47.20 101.88,45.09 99.44,42.84 C95.02,38.76 93.49,39.31 96.04,44.07 C97.29,46.40 96.22,46.55 93.22,44.44 C90.13,42.28 88.00,37.78 88.00,33.43 C88.00,28.53 94.19,22.00 98.84,22.00 C101.49,22.00 102.20,22.59 103.88,26.25 C105.73,30.27 105.84,30.35 105.92,27.65 C106.03,23.76 108.74,18.35 111.76,15.98 C115.20,13.26 121.31,11.78 125.67,12.60 C129.48,13.31 137.00,19.26 137.00,21.56 C137.00,23.94 138.84,24.09 142.69,22.03 C147.84,19.26 156.12,19.29 160.64,22.09 C168.07,26.68 169.52,36.26 163.87,43.44 C162.72,44.90 161.53,45.87 161.24,45.58 C160.95,45.29 161.28,44.36 161.98,43.52 C164.03,41.05 161.46,41.74 158.11,44.56 C154.54,47.57 153.01,52.26 153.01,60.25 C153.00,65.43 152.34,67.00 150.80,65.47 ZM 151.27 56.62 C151.58,52.56 152.55,47.83 153.44,46.12 C154.33,44.40 154.83,43.00 154.56,43.00 C154.29,43.00 151.95,44.34 149.36,45.99 C146.77,47.63 143.15,49.26 141.32,49.60 C137.33,50.35 136.90,52.00 140.70,52.00 C144.17,52.00 142.67,53.54 138.00,54.76 L 134.50 55.68 L 138.75 56.43 C143.82,57.32 144.21,58.62 139.75,59.81 C136.57,60.66 136.64,60.71 143.00,62.22 C146.57,63.07 149.77,63.82 150.11,63.88 C150.44,63.95 150.96,60.68 151.27,56.62 ZM 123.43 48.04 C126.20,46.62 127.78,46.35 129.07,47.04 C133.78,49.56 143.75,47.21 145.97,43.06 C147.85,39.55 147.04,38.83 143.82,41.13 C141.66,42.66 138.74,43.54 134.82,43.82 L 129.00 44.24 L 129.00 40.87 L 128.99 37.50 L 126.75 40.23 C122.18,45.78 114.15,47.12 108.16,43.32 C106.88,42.51 105.63,42.04 105.39,42.28 C104.61,43.05 108.41,46.89 111.50,48.46 C115.53,50.51 118.81,50.39 123.43,48.04 Z" fill="rgb(252,253,253)"/>
</g>
</svg>